<svg width="64.8" height="18.44" viewBox="0 0 64.8 18.44" xmlns="http://www.w3.org/2000/svg"><g id="svgGroup" stroke-linecap="round" fill-rule="evenodd" font-size="9pt" stroke="#ffffff" stroke-width="0.25mm" fill="#ffffff" style="stroke:#ffffff;stroke-width:0.25mm;fill:#ffffff"><path d="M 0 14.5 L 0 0.74 L 11.9 0.74 L 11.9 4.04 L 4.42 4.04 L 4.42 5.94 L 10.82 5.94 L 10.82 9.1 L 4.42 9.1 L 4.42 11.2 L 12.04 11.2 L 12.04 14.5 L 0 14.5 Z M 64.8 7.66 L 64.8 14.5 L 60.82 14.5 L 60.82 8.14 A 2.151 2.151 0 0 0 60.775 7.686 Q 60.708 7.377 60.543 7.144 A 1.312 1.312 0 0 0 60.47 7.05 Q 60.12 6.64 59.48 6.64 A 1.859 1.859 0 0 0 58.925 6.719 A 1.497 1.497 0 0 0 58.28 7.12 A 1.636 1.636 0 0 0 57.82 8.278 A 2.113 2.113 0 0 0 57.82 8.3 L 57.82 14.5 L 53.84 14.5 L 53.84 0 L 57.82 0 L 57.82 5.04 Q 58.46 4.4 59.32 4.05 Q 60.18 3.7 61.12 3.7 Q 62.436 3.7 63.282 4.222 A 2.738 2.738 0 0 1 63.88 4.72 A 3.296 3.296 0 0 1 64.566 5.954 Q 64.8 6.693 64.8 7.66 Z M 52.12 8.2 L 48.26 8.2 A 2.361 2.361 0 0 0 48.154 7.461 Q 47.805 6.402 46.307 6.4 A 4.251 4.251 0 0 0 46.3 6.4 A 2.42 2.42 0 0 0 45.477 6.528 Q 44.413 6.912 44.345 8.444 A 4.841 4.841 0 0 0 44.34 8.66 L 44.34 9.8 A 3.564 3.564 0 0 0 44.434 10.659 Q 44.778 12.04 46.38 12.04 A 3.295 3.295 0 0 0 47.15 11.958 Q 48.181 11.71 48.375 10.707 A 2.667 2.667 0 0 0 48.42 10.2 L 52.12 10.2 A 5.184 5.184 0 0 1 51.947 11.582 A 3.562 3.562 0 0 1 50.51 13.62 A 5.883 5.883 0 0 1 48.603 14.473 Q 47.828 14.673 46.92 14.723 A 11.262 11.262 0 0 1 46.3 14.74 Q 44.12 14.74 42.678 13.879 A 4.887 4.887 0 0 1 41.94 13.34 Q 40.438 12.009 40.364 9.485 A 9.035 9.035 0 0 1 40.36 9.22 Q 40.36 6.5 41.94 5.1 A 5.259 5.259 0 0 1 44.027 3.987 Q 44.819 3.763 45.761 3.714 A 10.358 10.358 0 0 1 46.3 3.7 A 9.956 9.956 0 0 1 48.041 3.843 Q 49.029 4.019 49.826 4.41 A 5.383 5.383 0 0 1 50.51 4.81 Q 52.12 5.92 52.12 8.2 Z M 18.16 13.54 L 18.16 18.44 L 14.18 18.44 L 14.18 3.94 L 17.42 3.94 L 17.76 5.44 A 3.699 3.699 0 0 1 20.426 3.747 A 4.979 4.979 0 0 1 21.12 3.7 Q 23.26 3.7 24.42 5.1 Q 25.301 6.163 25.513 7.999 A 10.838 10.838 0 0 1 25.58 9.24 Q 25.58 11.96 24.42 13.35 A 3.773 3.773 0 0 1 22.099 14.658 A 5.618 5.618 0 0 1 21.12 14.74 A 4.577 4.577 0 0 1 19.768 14.549 A 3.623 3.623 0 0 1 18.16 13.54 Z M 34.731 3.867 A 8.844 8.844 0 0 0 32.96 3.7 A 10.358 10.358 0 0 0 32.421 3.714 Q 31.479 3.763 30.687 3.987 A 5.259 5.259 0 0 0 28.6 5.1 Q 27.02 6.5 27.02 9.22 A 9.035 9.035 0 0 0 27.024 9.485 Q 27.098 12.009 28.6 13.34 A 4.887 4.887 0 0 0 29.338 13.879 Q 30.78 14.74 32.96 14.74 Q 34.177 14.74 35.165 14.47 A 5.319 5.319 0 0 0 37.33 13.33 A 4.342 4.342 0 0 0 37.847 12.786 Q 38.491 11.976 38.749 10.853 A 7.31 7.31 0 0 0 38.92 9.22 Q 38.92 6.52 37.33 5.11 A 4.933 4.933 0 0 0 36.628 4.591 Q 35.8 4.085 34.731 3.867 Z M 31 8.66 L 31 9.8 A 3.725 3.725 0 0 0 31.087 10.645 Q 31.357 11.798 32.461 11.998 A 2.805 2.805 0 0 0 32.96 12.04 A 2.5 2.5 0 0 0 33.779 11.917 Q 34.94 11.515 34.94 9.8 L 34.94 8.66 Q 34.94 6.709 33.464 6.442 A 2.838 2.838 0 0 0 32.96 6.4 A 2.42 2.42 0 0 0 32.137 6.528 Q 31.073 6.912 31.005 8.444 A 4.841 4.841 0 0 0 31 8.66 Z M 18.12 8.88 L 18.12 9.54 Q 18.12 10.54 18.56 11.17 A 1.431 1.431 0 0 0 19.59 11.781 A 2.17 2.17 0 0 0 19.88 11.8 Q 21.6 11.8 21.6 9.74 L 21.6 8.68 A 3.526 3.526 0 0 0 21.525 7.916 Q 21.284 6.834 20.269 6.67 A 2.43 2.43 0 0 0 19.88 6.64 A 1.975 1.975 0 0 0 19.338 6.71 A 1.397 1.397 0 0 0 18.56 7.26 A 2.253 2.253 0 0 0 18.22 8.013 Q 18.14 8.324 18.124 8.69 A 4.303 4.303 0 0 0 18.12 8.88 Z" vector-effect="non-scaling-stroke"/></g></svg>